Coordinates
version=1
nRows=15
nColumns=26
inDegrees=yes

Units are S.I. units (second, meters, Newtons, ...)
If the header above contains a line with 'inDegrees', this indicates whether rotational values are in degrees (yes) or radians (no).

endheader
time	pelvis_tilt	pelvis_list	pelvis_rotation	pelvis_tx	pelvis_ty	pelvis_tz	hip_flexion_r	hip_adduction_r	hip_rotation_r	knee_angle_r	knee_angle_r_beta	hip_flexion_l	hip_adduction_l	hip_rotation_l	knee_angle_l	knee_angle_l_beta	lumbar_extension	lumbar_bending	lumbar_rotation	ankle_angle_r	subtalar_angle_r	mtp_angle_r	ankle_angle_l	subtalar_angle_l	mtp_angle_l
      1.34000000	     -5.52985150	     -3.49536110	      1.52975582	      0.02295395	      0.83958386	      0.24595664	     -6.26463701	      5.74432898	      1.98770373	     16.14385469	      0.28176342	     32.42572640	     -3.92165283	      8.13802504	      7.45628946	      0.13013680	     -2.86990646	      4.50383022	     -5.48248512	     23.33978010	      4.53480182	      0.00000000	      2.94062831	      2.03098521	      0.00000000
      1.35000000	     -5.74468562	     -2.96951874	      1.50178334	      0.03477679	      0.83850128	      0.24447239	     -6.15079292	      4.92596661	      1.26506664	     17.64898734	      0.30803294	     32.74908963	     -3.13603324	      8.30484801	      8.57040296	      0.14958175	     -2.50624671	      3.79930599	     -5.35212572	     23.52974718	      5.09696998	      0.00000000	      1.66889409	      1.16481677	      0.00000000
      1.36000000	     -5.68671289	     -2.43143876	      1.59047673	      0.04696605	      0.83797012	      0.24278966	     -6.55212114	      4.18107951	      1.08437547	     18.68182265	      0.32605932	     32.73206737	     -2.30642897	      8.58058507	      9.83732341	      0.17169368	     -2.43434765	      3.07023259	     -5.35920870	     22.98324541	      5.06761117	      0.00000000	      0.43683823	      0.52783527	      0.00000000
      1.37000000	     -5.57869751	     -1.89350944	      1.72527909	      0.05926005	      0.83769175	      0.24107707	     -6.87945091	      3.44088934	      0.87135521	     19.93104391	      0.34786234	     32.66518531	     -1.46169458	      8.87126023	     11.24448302	      0.19625325	     -2.40871119	      2.31629867	     -5.31669798	     22.19889055	      4.96825272	      0.00000000	     -0.90920620	     -0.26811842	      0.00000000
      1.38000000	     -5.75053006	     -1.38166670	      1.90258170	      0.07145921	      0.83721851	      0.23914997	     -6.64468467	      2.65314256	      0.45072088	     21.64909271	      0.37784795	     32.71505794	     -0.50274980	     10.15903286	     12.33322045	      0.21525530	     -2.05049392	      1.62078029	     -5.36752241	     21.46594655	      5.31375539	      0.00000000	     -3.12228012	     -2.58355181	      0.00000000
      1.39000000	     -5.55707810	     -0.73944296	      2.06923605	      0.08400298	      0.83746850	      0.23733310	     -6.82804495	      1.78143823	      0.20962318	     23.24451311	      0.40569329	     32.46226674	      0.45551918	     10.43545108	     13.78271399	      0.24055374	     -2.11757729	      0.72462227	     -5.41116257	     20.07259144	      5.04128576	      0.00000000	     -4.18958344	     -3.54324058	      0.00000000
      1.40000000	     -5.41197753	     -0.10742473	      2.21029866	      0.09647097	      0.83785330	      0.23547364	     -6.73136230	      0.87570335	     -0.09077541	     25.16321404	      0.43918094	     32.16255422	      1.41833475	     10.93407783	     15.10654572	      0.26365896	     -2.13685313	     -0.11954577	     -5.46695922	     18.34510546	      4.80028603	      0.00000000	     -5.02150512	     -4.73003036	      0.00000000
      1.41000000	     -5.50550613	      0.51483864	      2.53472397	      0.10879001	      0.83810802	      0.23337016	     -6.13251693	     -0.00769151	     -0.38918185	     27.49698181	      0.47991287	     32.02396623	      2.51759148	     11.76447831	     16.19418187	      0.28264179	     -1.86796680	     -0.99059800	     -5.52231866	     16.36697891	      4.60547104	      0.00000000	     -6.05148786	     -6.57734900	      0.00000000
      1.42000000	     -5.29855270	      1.16626962	      2.75896296	      0.12116292	      0.83896694	      0.23141854	     -5.75697249	     -0.94801063	     -0.67419678	     29.84188975	      0.52083923	     31.45141040	      3.54270236	     12.40241307	     17.20861474	      0.30034699	     -1.99000140	     -1.86539909	     -5.65150729	     13.83226835	      4.43532170	      0.00000000	     -6.14207556	     -7.77983866	      0.00000000
      1.43000000	     -5.40854172	      1.81026570	      3.01689903	      0.13316354	      0.83959141	      0.22938611	     -4.73448600	     -1.91817509	     -0.94332565	     32.59461598	      0.56888337	     31.04055695	      4.67259994	     13.61030906	     17.83999725	      0.31136669	     -1.77132293	     -2.74226599	     -5.79650130	     10.94997158	      4.10011844	      0.00000000	     -6.97938632	    -10.11774209	      0.00000000
      1.44000000	     -5.27404082	      2.49436381	      3.24916177	      0.14521904	      0.84063084	      0.22749810	     -3.85674405	     -2.97474999	     -1.36318380	     35.39880849	      0.61782576	     30.41631479	      5.69415087	     13.94790425	     18.65577288	      0.32560466	     -1.85588446	     -3.66116711	     -5.96931945	      7.61408887	      3.77066053	      0.00000000	     -6.34978369	    -10.91724975	      0.00000000
      1.45000000	     -5.34800794	      3.12003924	      3.47457969	      0.15688786	      0.84152325	      0.22563706	     -2.49096351	     -3.95703536	     -1.57553063	     38.47197242	      0.67146259	     29.96528057	      6.66950806	     14.36246559	     19.34515781	      0.33763670	     -1.73118971	     -4.52078851	     -6.09899175	      3.89643887	      3.12573145	      0.00000000	     -5.78958483	    -11.80070815	      0.00000000
      1.46000000	     -4.92237930	      3.59273743	      3.67430987	      0.16827986	      0.84306703	      0.22382680	     -1.60540968	     -4.70970097	     -1.54789584	     41.48441514	      0.72403963	     28.87920198	      7.45654934	     14.94867376	     19.90689957	      0.34744094	     -2.29239537	     -5.10909832	     -6.46855554	      0.51958019	      3.18869905	      0.00000000	     -4.82255050	    -12.36358641	      0.00000000
      1.47000000	     -5.45547667	      4.30342021	      3.87047609	      0.17960694	      0.84356025	      0.22218101	      0.60882298	     -5.89226120	     -1.96124408	     44.73440519	      0.78076266	     28.73395150	      8.44067692	     14.97993465	     20.18123691	      0.35222903	     -1.61350621	     -6.13315206	     -6.42508902	     -4.14719510	      1.18389290	      0.00000000	     -4.22026141	    -13.07482208	      0.00000000
      1.48000000	     -5.62285122	      4.68100608	      4.01518262	      0.19044663	      0.84453899	      0.22063985	      2.49948294	     -6.51099449	     -1.83216626	     47.82766603	      0.83475025	     28.19021331	      9.06218804	     15.25809399	     20.44818007	      0.35688807	     -1.47370969	     -6.66054116	     -6.54806662	     -8.54797482	     -0.79463820	      0.00000000	     -3.39296468	    -13.60995222	      0.00000000
